<svg xmlns="http://www.w3.org/2000/svg" viewBox="0 0 32 32" width="32" height="32">
  <rect width="32" height="32" rx="7" fill="#FAD5B0"/>
  <!-- Gear shape -->
  <polygon points="16,3 18.2,5.5 21.4,4.8 22.2,8.1 25.4,9.4 24.5,12.6 27,14.8 25.2,17.6 26.5,20.7 23.5,22.0 23.3,25.3 20.0,25.5 18.2,28.2 15.2,26.9 12.2,28.2 10.4,25.5 7.1,25.3 6.9,22.0 3.9,20.7 5.2,17.6 3.4,14.8 5.9,12.6 5.0,9.4 8.2,8.1 9.0,4.8 12.2,5.5"
    fill="#E8A97A" stroke="#2D2D2D" stroke-width="1.2" stroke-linejoin="round"/>
  <circle cx="16" cy="16" r="6" fill="#FAD5B0" stroke="#2D2D2D" stroke-width="1.2"/>
  <circle cx="16" cy="16" r="2.5" fill="#2D2D2D"/>
</svg>
